<svg width="438" height="125" viewBox="0 0 438 125" fill="none" xmlns="http://www.w3.org/2000/svg">
<g clip-path="url(#clip0)">
<path d="M38.1593 89.6737L40.4028 85.4337C34.8802 85.7347 29.5919 87.7633 25.2855 91.2326C20.979 94.702 17.8722 99.4366 16.4042 104.767C5.20328 92.5279 -0.675238 76.3417 0.0618123 59.7695C0.798863 43.1972 8.09111 27.5964 20.3343 16.399C32.5776 5.20164 48.7689 -0.675026 65.3464 0.0617929C81.9239 0.798611 97.5296 8.08856 108.73 20.3279H41.7947C34.9175 20.3066 28.3048 22.9759 23.3705 27.765C18.4363 32.5541 15.572 39.083 15.3902 45.9557C15.2084 52.8285 17.7234 59.4996 22.3976 64.5427C27.0717 69.5859 33.534 72.6008 40.4028 72.9429L38.1593 68.703H42.0403L46.3226 72.9839H55.7468L49.4176 60.1985H53.2905L66.0799 73.0166H84.0277C85.6358 73.075 87.1586 73.7547 88.2756 74.9126C89.3926 76.0705 90.0168 77.6165 90.0168 79.2251C90.0168 80.8338 89.3926 82.3797 88.2756 83.5377C87.1586 84.6956 85.6358 85.3753 84.0277 85.4337H66.0799L53.2823 98.2191H49.4176L55.7468 85.4337H46.3226L42.0403 89.6737H38.1593Z" fill="white"/>
<path d="M99.9788 35.0248C104.564 31.5332 107.879 26.636 109.416 21.0824C120.265 33.3766 125.851 49.4375 124.972 65.8079C124.093 82.1783 116.82 97.5493 104.718 108.612C92.6155 119.675 76.652 125.546 60.2633 124.96C43.8747 124.374 28.3712 117.379 17.0901 105.481H84.0258C91.0096 105.481 97.7072 102.707 102.645 97.7705C107.584 92.8339 110.358 86.1383 110.358 79.1568C110.358 72.1753 107.584 65.4798 102.645 60.5431C97.7072 55.6064 91.0096 52.833 84.0258 52.833H41.7929C40.1848 52.7747 38.662 52.095 37.545 50.937C36.428 49.7791 35.8038 48.2332 35.8038 46.6245C35.8038 45.0159 36.428 43.4699 37.545 42.312C38.662 41.154 40.1848 40.4744 41.7929 40.416H84.0258C89.7899 40.41 95.3934 38.5164 99.9788 35.0248Z" fill="white"/>
<path d="M173.555 69.5889C183.983 69.5889 191.036 62.7613 191.036 54.1331C191.036 46.5553 185.559 41.8285 176.856 39.6527L170.328 38.0021C163.801 36.3515 163.276 32.9002 163.276 31.2496C163.276 26.5228 167.627 23.5967 172.504 23.5967C177.831 23.5967 181.658 26.8979 181.658 31.7748H189.31C189.31 22.3963 182.033 16.5441 172.729 16.5441C163.576 16.5441 155.548 22.3212 155.548 31.3996C155.548 35.6762 157.349 42.2037 168.378 44.9797L174.98 46.6303C179.182 47.7557 183.308 49.9315 183.308 54.5082C183.308 58.7848 179.707 62.5363 173.555 62.5363C167.102 62.5363 162.976 58.2597 162.826 53.833H155.173C155.173 62.1611 162.525 69.5889 173.555 69.5889Z" fill="white"/>
<path d="M224.217 69.5889C232.395 69.5889 239.522 65.9875 244.099 60.2854L238.397 55.7087C235.096 59.7602 229.994 62.3862 224.292 62.3862C213.713 62.3862 205.685 53.6829 205.685 43.104C205.685 32.45 213.788 23.8218 224.292 23.8218C229.994 23.8218 235.096 26.3727 238.397 30.4993L244.099 25.9226C239.522 20.2204 232.395 16.6191 224.217 16.6191C209.586 16.6191 197.957 28.4735 197.957 43.104C197.957 57.7345 209.586 69.5889 224.217 69.5889Z" fill="white"/>
<path d="M275.355 69.5889C290.136 69.5889 301.615 57.7345 301.615 43.104C301.615 28.3985 290.136 16.5441 275.355 16.5441C260.65 16.5441 249.246 28.3985 249.246 43.104C249.246 57.7345 260.65 69.5889 275.355 69.5889ZM275.355 62.3862C264.851 62.3862 256.973 53.6829 256.973 43.104C256.973 32.45 264.851 23.7468 275.355 23.7468C285.934 23.7468 293.887 32.45 293.887 43.104C293.887 53.6829 285.934 62.3862 275.355 62.3862Z" fill="white"/>
<path d="M342.786 17.1443H304.297V24.1969H319.678V68.8386H327.405V24.1969H342.786V17.1443Z" fill="white"/>
<path d="M384.257 17.1443H345.767V24.1969H361.148V68.8386H368.876V24.1969H384.257V17.1443Z" fill="white"/>
<path d="M419.301 69.5889C429.73 69.5889 436.782 62.7613 436.782 54.1331C436.782 46.5553 431.305 41.8285 422.602 39.6527L416.075 38.0021C409.547 36.3515 409.022 32.9002 409.022 31.2496C409.022 26.5228 413.373 23.5967 418.25 23.5967C423.577 23.5967 427.404 26.8979 427.404 31.7748H435.057C435.057 22.3963 427.779 16.5441 418.475 16.5441C409.322 16.5441 401.294 22.3212 401.294 31.3996C401.294 35.6762 403.095 42.2037 414.124 44.9797L420.726 46.6303C424.928 47.7557 429.054 49.9315 429.054 54.5082C429.054 58.7848 425.453 62.5363 419.301 62.5363C412.848 62.5363 408.722 58.2597 408.572 53.833H400.919C400.919 62.1611 408.272 69.5889 419.301 69.5889Z" fill="white"/>
<path d="M399.425 19.2186C399.488 23.9375 397.057 26.4529 393.65 28.973C392.956 29.4866 392 29.4473 391.334 28.8977C390.35 28.0864 390.428 26.5711 391.445 25.8023C393.32 24.385 395.69 22.3104 395.41 20.9972C394.916 21.3613 394.304 21.5294 393.693 21.469C393.172 21.4594 392.658 21.3448 392.183 21.132C391.707 20.9192 391.28 20.6126 390.926 20.2305C390.572 19.8485 390.299 19.3989 390.123 18.9087C389.947 18.4186 389.872 17.8979 389.902 17.3781C389.893 16.7869 390.003 16.1998 390.226 15.6524C390.45 15.105 390.782 14.6085 391.203 14.193C391.624 13.7774 392.124 13.4514 392.674 13.2346C393.225 13.0178 393.813 12.9146 394.404 12.9314C397.646 12.9314 399.425 15.5994 399.425 19.2186Z" fill="white"/>
<path d="M168.796 111.713C173.039 111.713 176.736 109.859 179.111 106.925L176.153 104.569C174.44 106.655 171.793 108.006 168.835 108.006C163.347 108.006 159.182 103.527 159.182 98.0826C159.182 92.5997 163.386 88.1592 168.835 88.1592C171.793 88.1592 174.44 89.4721 176.153 91.5957L179.111 89.2404C176.736 86.3058 173.039 84.4525 168.796 84.4525C161.206 84.4525 155.173 90.5532 155.173 98.0826C155.173 105.612 161.206 111.713 168.796 111.713Z" fill="white"/>
<path d="M200.338 84.7227V96.3064H187.96V84.7227H183.951V111.327H187.96V99.8974H200.338V111.327H204.347V84.7227H200.338Z" fill="white"/>
<path d="M215.518 107.697V100.09H226.066V96.4223H215.518V88.3523H227.623V84.7227H211.548V111.327H227.973V107.697H215.518Z" fill="white"/>
<path d="M250.37 111.327H254.574L244.454 84.7227H240.172L230.013 111.327H234.217L236.708 104.608H247.84L250.37 111.327ZM237.993 101.133L242.274 89.6651L246.556 101.133H237.993Z" fill="white"/>
<path d="M268.931 84.7227H258.188V111.327H262.197V101.48H268.931C274.691 101.48 277.105 97.3876 277.105 93.1402C277.105 88.9315 274.691 84.7227 268.931 84.7227ZM268.697 97.8509H262.197V88.3523H268.853C271.85 88.3523 273.096 90.7849 273.096 93.1402C273.096 95.4956 271.811 97.8509 268.697 97.8509Z" fill="white"/>
<path d="M306.339 88.3523V84.7227H290.497V111.327H294.507V100.052H303.887V96.4223H294.507V88.3523H306.339Z" fill="white"/>
<path d="M311.176 111.327H325.967V107.697H315.185V84.7227H311.176V111.327Z" fill="white"/>
<path d="M330.409 111.327H334.419V84.7227H330.409V111.327Z" fill="white"/>
<path d="M353.455 111.713C361.162 111.713 366.222 107.311 366.222 97.8509H354.116V101.249H361.823C361.823 101.48 361.784 101.712 361.746 101.905C361.162 105.651 357.814 108.045 353.455 108.045C348.044 108.045 343.88 103.527 343.88 98.0826C343.88 92.5997 348.044 88.082 353.455 88.082C355.946 88.082 358.242 89.0859 359.916 90.6304L362.719 88.082C360.383 85.8039 357.114 84.4139 353.455 84.4139C345.826 84.4139 339.87 90.5146 339.87 98.0826C339.87 105.612 345.826 111.713 353.455 111.713Z" fill="white"/>
<path d="M387.393 84.7227V96.3064H375.015V84.7227H371.006V111.327H375.015V99.8974H387.393V111.327H391.402V84.7227H387.393Z" fill="white"/>
<path d="M415.728 84.7227H395.761V88.3523H403.74V111.327H407.749V88.3523H415.728V84.7227Z" fill="white"/>
<path d="M427.713 111.713C433.123 111.713 436.782 108.199 436.782 103.759C436.782 99.8588 433.941 97.4262 429.426 96.3064L426.039 95.457C422.653 94.6075 422.38 92.8313 422.38 91.9819C422.38 89.5493 424.638 88.0434 427.168 88.0434C429.932 88.0434 431.917 89.7423 431.917 92.2521H435.887C435.887 87.4256 432.111 84.4139 427.285 84.4139C422.536 84.4139 418.371 87.387 418.371 92.0591C418.371 94.26 419.305 97.6192 425.027 99.0479L428.453 99.8974C430.632 100.477 432.773 101.596 432.773 103.952C432.773 106.153 430.905 108.083 427.713 108.083C424.366 108.083 422.225 105.882 422.147 103.604H418.177C418.177 107.89 421.991 111.713 427.713 111.713Z" fill="white"/>
</g>
<defs>
<clipPath id="clip0">
<rect width="438" height="125" fill="white"/>
</clipPath>
</defs>
</svg>
