<svg width="1005" height="905" viewBox="0 0 1005 905" fill="none" xmlns="http://www.w3.org/2000/svg">
<path d="M886.26 287.636C849.161 452.962 1019.42 574.549 973.99 644.927C932.769 708.825 795.663 609.108 606.403 656.447C388.557 710.985 351.637 913.66 183.077 901.96C115.869 897.28 38.1754 862.181 8.96199 800.353C-30.1983 717.645 133.074 565.369 133.074 424.793C133.074 280.166 2.59957 162.809 76.2604 78.2115C116.048 32.4927 181.106 19.983 272.062 15.0331C558.013 -0.35647 977.485 -23.0359 1001.86 94.9511C1014.23 153.72 912.427 171.269 886.26 287.636Z" stroke="url(#paint0_linear)" stroke-width="4.17255" stroke-miterlimit="10"/>
<path d="M985.996 103.501C997.555 159.839 896.922 177.749 869.948 286.106C869.5 288.086 869.052 290.066 868.604 292.136C834.104 453.142 1008.22 571.399 964.399 640.787C925.149 702.885 791.717 607.308 605.236 654.466C394.738 707.475 356.205 901.96 192.394 891.16C136.298 887.47 72.6733 862.361 37.3663 817.812C31.5415 810.432 26.5232 802.603 22.3115 794.053C-16.9384 714.315 137.552 565.099 138.179 426.772C138.627 286.016 15.5906 171.089 88.0865 88.3811C126.978 43.9223 189.975 31.3226 277.794 26.1927C555.859 9.09315 962.607 -10.1663 985.996 103.501Z" stroke="url(#paint1_linear)" stroke-width="4.02348" stroke-miterlimit="10"/>
<path d="M970.048 112.05C981.249 167.039 877.658 184.768 852.208 290.606C851.76 292.586 851.312 294.566 850.954 296.546C819.142 453.321 997.11 568.249 954.903 636.647C917.625 697.035 787.867 605.418 604.073 652.576C400.834 703.965 360.599 890.26 201.538 880.36C146.875 877.031 85.1322 853.271 50.4525 810.522C44.807 803.502 39.7887 795.943 35.577 787.753C-3.85218 711.075 141.856 564.739 143.111 428.752C144.007 291.866 28.408 179.459 99.7389 98.5507C137.734 55.3518 198.76 42.9321 283.443 37.2622C553.622 19.3527 947.645 2.70314 970.048 112.05Z" stroke="url(#paint2_linear)" stroke-width="3.87452" stroke-miterlimit="10"/>
<path d="M954.098 120.601C964.851 174.239 858.572 191.879 834.377 295.196C833.929 297.176 833.57 299.156 833.122 301.136C803.909 453.502 985.82 565.189 945.137 632.598C909.83 691.186 783.746 604.158 602.641 650.687C407.108 700.906 365.08 878.561 210.679 869.651C157.54 866.591 97.4998 844.182 63.5369 803.323C57.981 796.663 53.0524 789.463 48.8406 781.544C9.14263 707.926 146.428 564.559 148.041 430.823C149.654 297.806 41.2236 187.829 111.3 108.811C148.399 66.8722 207.453 54.4525 288.91 48.5127C551.473 29.1632 932.681 15.4835 954.098 120.601Z" stroke="url(#paint3_linear)" stroke-width="3.72546" stroke-miterlimit="10"/>
<path d="M938.056 129.151C948.541 181.349 839.394 198.989 816.543 299.696C816.095 301.676 815.736 303.656 815.378 305.636C788.674 453.682 974.528 562.039 935.547 628.548C902.212 685.336 779.802 602.538 601.385 648.797C413.201 697.576 369.47 866.951 219.819 858.852C168.202 856.152 109.955 835.002 76.5297 796.033C71.153 789.733 66.2243 782.894 62.0126 775.244C22.225 704.686 150.818 564.289 152.968 432.893C155.03 303.746 54.0371 196.199 122.949 119.161C159.152 78.4819 216.234 66.1522 294.465 59.7624C549.231 39.0629 917.894 28.3532 938.056 129.151Z" stroke="url(#paint4_linear)" stroke-width="3.5765" stroke-miterlimit="10"/>
<path d="M922.104 137.7C932.23 188.459 820.305 206.098 798.798 304.286C798.35 306.176 798.082 308.156 797.723 310.135C773.528 453.862 963.415 558.889 925.957 624.497C894.593 679.486 775.947 600.918 600.219 646.907C419.383 694.156 374.039 855.251 229.047 848.142C178.954 845.712 122.499 825.912 89.7012 788.743C84.4141 782.803 79.575 776.233 75.2737 768.944C35.3069 701.355 155.207 563.929 157.896 434.782C160.494 309.415 66.8502 204.478 134.507 129.24C169.724 89.8212 224.836 77.4915 300.02 70.8317C547.079 48.8722 902.927 41.1324 922.104 137.7Z" stroke="url(#paint5_linear)" stroke-width="3.42744" stroke-miterlimit="10"/>
<path d="M906.154 146.25C915.833 195.658 801.219 213.298 781.057 308.785C780.608 310.675 780.34 312.655 780.071 314.635C758.295 453.952 952.215 555.739 916.46 620.357C886.978 673.636 772.006 599.298 599.055 644.927C425.657 690.736 378.61 843.552 238.279 837.252C189.709 835.182 135.046 816.732 102.875 781.453C97.7674 775.873 93.018 769.664 88.627 762.644C48.5706 698.115 159.689 563.569 162.915 436.852C166.052 315.355 79.7555 212.848 146.247 139.5C180.569 101.341 233.708 89.0112 305.667 81.9913C544.84 58.6819 888.053 54.0021 906.154 146.25Z" stroke="url(#paint6_linear)" stroke-width="3.27848" stroke-miterlimit="10"/>
<path d="M890.115 154.799C899.434 202.768 782.132 220.408 763.224 313.375C762.866 315.265 762.597 317.245 762.328 319.135C742.972 454.042 941.014 552.589 906.782 616.307C879.182 667.696 767.974 597.678 597.712 643.037C431.751 687.316 383.092 831.852 247.42 826.542C200.373 824.832 147.503 807.643 115.87 774.253C110.941 769.034 106.192 763.184 101.801 756.434C61.6546 694.965 163.991 563.479 167.844 438.922C171.429 321.295 92.6602 221.398 157.898 149.85C191.412 113.041 242.491 100.621 311.223 93.2411C542.69 68.4917 873.088 66.8718 890.115 154.799Z" stroke="url(#paint7_linear)" stroke-width="3.12941" stroke-miterlimit="10"/>
<path d="M874.162 163.35C883.123 209.968 763.044 227.518 745.39 317.876C745.032 319.766 744.763 321.746 744.584 323.635C727.557 454.132 929.721 549.35 897.192 612.168C871.474 661.757 764.029 595.968 596.545 641.147C437.932 683.896 387.571 820.153 256.648 815.743C211.036 814.303 160.136 798.463 129.041 766.964C124.202 762.104 119.542 756.524 115.151 750.134C74.8258 691.636 168.47 563.119 172.861 440.902C176.893 327.145 105.652 229.678 169.545 160.02C202.164 124.471 251.271 112.051 316.867 104.401C540.538 78.2118 858.122 79.6518 874.162 163.35Z" stroke="url(#paint8_linear)" stroke-width="2.98035" stroke-miterlimit="10"/>
<path d="M858.212 171.899C866.725 217.168 744.047 234.628 727.648 322.375C727.289 324.265 727.11 326.155 726.841 328.135C712.145 454.222 918.431 546.2 887.605 608.118C863.768 655.907 760.087 594.258 595.291 639.257C444.027 680.476 392.052 808.543 265.789 805.033C221.7 803.953 172.593 789.373 142.125 759.764C137.465 755.264 132.895 750.044 128.414 743.924C87.91 688.396 172.862 562.849 177.791 442.972C182.361 332.995 118.468 238.138 181.196 170.279C212.918 136.08 259.964 123.57 322.424 115.561C538.298 87.9314 843.157 92.5213 858.212 171.899Z" stroke="url(#paint9_linear)" stroke-width="2.83139" stroke-miterlimit="10"/>
<path d="M842.259 180.449C850.414 224.278 725.047 241.827 709.903 326.965C709.544 328.855 709.455 330.745 709.186 332.635C696.73 454.312 907.228 542.96 878.014 603.978C856.059 649.877 756.142 592.548 594.035 637.277C450.119 676.966 396.531 796.843 274.928 794.233C232.362 793.423 185.137 780.283 155.117 752.474C150.636 748.334 146.066 743.474 141.586 737.624C100.991 685.156 177.161 562.579 182.628 444.952C187.646 338.845 131.191 246.417 192.754 180.539C223.491 147.6 268.655 135.09 327.888 126.81C536.146 97.651 828.19 105.391 842.259 180.449Z" stroke="url(#paint10_linear)" stroke-width="2.68232" stroke-miterlimit="10"/>
<path d="M826.22 188.999C834.016 231.478 706.051 248.937 692.071 331.465C691.713 333.355 691.623 335.245 691.444 337.135C681.139 454.312 895.848 539.72 868.427 599.928C848.354 643.937 752.201 590.928 592.782 635.387C456.303 673.456 401.012 785.143 284.159 783.433C243.117 782.983 197.684 771.104 168.291 745.184C163.9 741.314 159.419 736.814 154.939 731.325C114.255 681.826 181.553 562.219 187.647 446.932C193.113 344.695 144.096 254.787 204.404 190.709C234.245 159.029 277.438 146.43 333.535 137.88C533.996 107.281 813.226 118.17 826.22 188.999Z" stroke="url(#paint11_linear)" stroke-width="2.53336" stroke-miterlimit="10"/>
<path d="M810.269 197.549C817.617 238.588 687.053 256.047 674.238 336.055C673.969 337.945 673.88 339.835 673.7 341.635C665.546 454.402 884.467 536.48 858.749 595.878C840.468 637.997 748.168 589.219 591.527 633.497C462.396 670.036 405.493 773.444 293.299 772.724C253.78 772.544 210.229 762.014 181.374 737.985C177.162 734.475 172.681 730.335 168.201 725.115C127.428 678.586 185.944 562.039 192.665 449.002C198.49 350.635 156.999 263.157 216.143 200.969C245.088 170.549 286.309 157.95 339.18 149.04C531.845 116.911 798.261 131.04 810.269 197.549Z" stroke="url(#paint12_linear)" stroke-width="2.3843" stroke-miterlimit="10"/>
<path d="M794.317 206.098C801.307 245.787 668.144 263.247 656.495 340.555C656.226 342.444 656.136 344.244 656.046 346.134C649.953 454.492 873.176 533.33 849.16 591.828C832.671 632.057 744.224 587.508 590.272 631.607C468.489 666.526 409.973 761.744 302.439 761.924C264.443 762.104 222.774 752.744 194.367 730.694C190.335 727.545 185.944 723.765 181.284 718.815C140.421 675.346 190.066 561.769 197.414 450.982C203.687 356.484 169.634 271.436 227.523 211.228C255.572 182.069 294.822 169.379 344.467 160.289C529.694 126.45 783.295 143.91 794.317 206.098Z" stroke="url(#paint13_linear)" stroke-width="2.23534" stroke-miterlimit="10"/>
<path d="M778.278 214.648C784.82 252.897 649.148 270.357 638.663 345.145C638.394 346.945 638.394 348.835 638.305 350.725C634.272 454.582 861.796 530 839.572 587.778C824.876 626.117 740.193 585.798 589.018 629.717C474.584 663.016 414.455 750.134 311.67 751.124C275.198 751.664 235.41 743.564 207.541 723.405C203.688 720.615 199.297 717.105 194.637 712.515C153.685 672.016 194.458 561.409 202.433 452.962C209.154 362.244 182.54 279.806 239.264 221.398C266.416 193.499 303.605 180.719 350.113 171.359C527.455 135.99 768.331 156.78 778.278 214.648Z" stroke="url(#paint14_linear)" stroke-width="2.08627" stroke-miterlimit="10"/>
<path d="M762.327 223.288C768.51 260.187 630.239 277.647 620.92 349.735C620.651 351.535 620.651 353.425 620.651 355.225C618.5 454.582 850.415 526.76 830.073 583.639C817.08 619.998 736.34 583.999 587.943 627.828C480.767 659.417 418.935 738.435 320.9 740.415C285.862 741.225 248.135 734.475 220.624 716.205C216.861 713.775 212.649 710.625 207.9 706.305C166.947 668.776 198.759 561.229 207.451 455.032C214.531 368.184 195.444 288.176 251.003 231.658C277.169 205.018 312.476 192.059 355.848 182.609C525.304 145.35 753.366 169.559 762.327 223.288Z" stroke="url(#paint15_linear)" stroke-width="1.93721" stroke-miterlimit="10"/>
<path d="M746.376 231.837C752.111 267.386 611.421 284.756 603.176 354.324C602.997 356.124 602.907 358.014 602.907 359.814C602.639 454.761 838.855 523.519 820.395 579.678C809.104 614.147 732.217 582.288 586.598 626.027C486.86 655.816 423.415 726.734 330.04 729.614C296.525 730.784 260.77 725.204 233.707 708.915C230.123 706.755 225.911 704.055 221.162 700.005C180.119 665.446 203.06 560.869 212.38 457.101C219.817 374.123 208.258 296.545 262.562 241.917C287.922 216.627 321.258 203.578 361.404 193.858C523.063 154.709 738.311 182.428 746.376 231.837Z" stroke="url(#paint16_linear)" stroke-width="1.78825" stroke-miterlimit="10"/>
<path d="M730.334 240.387C735.711 274.496 592.422 291.956 585.253 358.824C585.074 360.624 585.074 362.424 585.074 364.224C586.687 454.671 827.205 520.1 810.716 575.448C801.038 607.937 728.184 580.308 585.253 623.957C492.953 652.216 427.895 715.035 339.269 718.814C307.278 720.254 273.494 715.845 246.879 701.625C243.474 699.825 239.262 697.395 234.513 693.705C193.471 662.026 207.361 560.599 217.397 459.081C225.193 379.973 221.161 304.825 274.301 252.177C298.675 228.057 329.949 214.828 366.959 204.928C520.822 163.979 723.345 195.298 730.334 240.387Z" stroke="url(#paint17_linear)" stroke-width="1.63919" stroke-miterlimit="10"/>
<path d="M714.386 248.937C719.314 281.696 573.695 299.156 567.512 363.414C567.333 365.214 567.333 367.014 567.423 368.814C570.738 454.852 815.557 516.77 801.13 571.489C793.065 601.998 724.153 578.508 584.001 622.157C498.959 648.617 432.288 703.425 348.322 708.105C317.854 709.905 286.042 706.575 259.786 694.515C256.56 692.985 252.438 691.005 247.599 687.586C206.556 658.876 211.395 560.419 222.149 461.241C230.303 385.913 233.709 313.285 285.773 262.527C309.162 239.667 338.554 226.257 372.428 216.268C518.584 173.069 708.292 208.168 714.386 248.937Z" stroke="url(#paint18_linear)" stroke-width="1.49023" stroke-miterlimit="10"/>
<path d="M698.434 257.487C702.915 288.896 554.876 306.266 549.769 367.914C549.589 369.714 549.679 371.514 549.769 373.314C554.787 454.942 803.907 513.44 791.63 567.439C785.178 596.058 720.21 576.529 582.925 620.268C505.232 645.017 436.947 691.816 357.641 697.396C328.697 699.465 298.856 697.306 273.048 687.316C270.001 686.146 265.879 684.436 261.04 681.376C219.908 655.547 215.786 560.149 227.346 463.312C235.859 391.853 246.702 321.565 297.601 272.787C320.094 251.097 347.425 237.507 378.162 227.428C516.164 181.979 693.237 221.038 698.434 257.487Z" stroke="url(#paint19_linear)" stroke-width="1.34116" stroke-miterlimit="10"/>
<path d="M682.394 266.036C686.336 296.006 535.968 313.465 531.936 372.414C531.846 374.214 531.846 376.014 532.025 377.723C538.656 454.941 791.989 509.93 781.952 563.209C776.934 589.848 716.088 574.368 581.58 618.197C511.146 641.147 441.338 679.936 366.692 686.505C339.27 688.935 311.491 687.675 286.041 679.936C283.173 679.036 279.051 677.776 274.212 674.986C233.081 652.036 219.908 559.789 232.184 465.201C240.966 397.613 259.426 329.755 309.161 282.956C330.668 262.616 356.028 248.757 383.628 238.587C513.744 190.618 678.182 233.907 682.394 266.036Z" stroke="url(#paint20_linear)" stroke-width="1.1922" stroke-miterlimit="10"/>
<path d="M514.192 377.003C510.07 452.691 780.07 505.43 772.453 559.249C768.958 583.998 712.054 572.298 580.415 616.397C493.85 645.376 391.782 692.625 299.213 672.736C296.525 672.196 292.493 671.206 287.564 668.776C217.936 634.757 202.254 403.193 320.899 293.216C444.026 179.099 662.499 241.197 666.532 274.586C669.937 303.205 517.239 320.575 514.192 377.003Z" stroke="url(#paint21_linear)" stroke-width="1.04314" stroke-miterlimit="10"/>
<defs>
<linearGradient id="paint0_linear" x1="-39.1641" y1="731.917" x2="987.466" y2="62.6893" gradientUnits="userSpaceOnUse">
<stop stop-color="#FF51D7"/>
<stop offset="0.5" stop-color="#C300FF"/>
<stop offset="1" stop-color="#00F3FF"/>
</linearGradient>
<linearGradient id="paint1_linear" x1="-24.9839" y1="726.44" x2="973.903" y2="75.2971" gradientUnits="userSpaceOnUse">
<stop stop-color="#FF51D7"/>
<stop offset="0.5" stop-color="#C300FF"/>
<stop offset="1" stop-color="#00F3FF"/>
</linearGradient>
<linearGradient id="paint2_linear" x1="-10.8183" y1="720.989" x2="960.348" y2="87.9156" gradientUnits="userSpaceOnUse">
<stop stop-color="#FF51D7"/>
<stop offset="0.5" stop-color="#C300FF"/>
<stop offset="1" stop-color="#00F3FF"/>
</linearGradient>
<linearGradient id="paint3_linear" x1="3.32351" y1="715.551" x2="946.793" y2="100.533" gradientUnits="userSpaceOnUse">
<stop stop-color="#FF51D7"/>
<stop offset="0.5" stop-color="#C300FF"/>
<stop offset="1" stop-color="#00F3FF"/>
</linearGradient>
<linearGradient id="paint4_linear" x1="17.4327" y1="710.129" x2="933.26" y2="113.13" gradientUnits="userSpaceOnUse">
<stop stop-color="#FF51D7"/>
<stop offset="0.5" stop-color="#C300FF"/>
<stop offset="1" stop-color="#00F3FF"/>
</linearGradient>
<linearGradient id="paint5_linear" x1="31.5062" y1="704.729" x2="919.705" y2="125.74" gradientUnits="userSpaceOnUse">
<stop stop-color="#FF51D7"/>
<stop offset="0.5" stop-color="#C300FF"/>
<stop offset="1" stop-color="#00F3FF"/>
</linearGradient>
<linearGradient id="paint6_linear" x1="45.54" y1="699.356" x2="906.153" y2="138.35" gradientUnits="userSpaceOnUse">
<stop stop-color="#FF51D7"/>
<stop offset="0.5" stop-color="#C300FF"/>
<stop offset="1" stop-color="#00F3FF"/>
</linearGradient>
<linearGradient id="paint7_linear" x1="59.5323" y1="694.034" x2="892.61" y2="150.977" gradientUnits="userSpaceOnUse">
<stop stop-color="#FF51D7"/>
<stop offset="0.5" stop-color="#C300FF"/>
<stop offset="1" stop-color="#00F3FF"/>
</linearGradient>
<linearGradient id="paint8_linear" x1="73.4712" y1="688.722" x2="879.054" y2="163.588" gradientUnits="userSpaceOnUse">
<stop stop-color="#FF51D7"/>
<stop offset="0.5" stop-color="#C300FF"/>
<stop offset="1" stop-color="#00F3FF"/>
</linearGradient>
<linearGradient id="paint9_linear" x1="87.3835" y1="683.427" x2="865.499" y2="176.197" gradientUnits="userSpaceOnUse">
<stop stop-color="#FF51D7"/>
<stop offset="0.5" stop-color="#C300FF"/>
<stop offset="1" stop-color="#00F3FF"/>
</linearGradient>
<linearGradient id="paint10_linear" x1="101.259" y1="678.152" x2="851.941" y2="188.806" gradientUnits="userSpaceOnUse">
<stop stop-color="#FF51D7"/>
<stop offset="0.5" stop-color="#C300FF"/>
<stop offset="1" stop-color="#00F3FF"/>
</linearGradient>
<linearGradient id="paint11_linear" x1="115.099" y1="672.9" x2="838.383" y2="201.414" gradientUnits="userSpaceOnUse">
<stop stop-color="#FF51D7"/>
<stop offset="0.5" stop-color="#C300FF"/>
<stop offset="1" stop-color="#00F3FF"/>
</linearGradient>
<linearGradient id="paint12_linear" x1="128.891" y1="667.676" x2="824.822" y2="214.021" gradientUnits="userSpaceOnUse">
<stop stop-color="#FF51D7"/>
<stop offset="0.5" stop-color="#C300FF"/>
<stop offset="1" stop-color="#00F3FF"/>
</linearGradient>
<linearGradient id="paint13_linear" x1="142.629" y1="662.484" x2="811.259" y2="226.625" gradientUnits="userSpaceOnUse">
<stop stop-color="#FF51D7"/>
<stop offset="0.5" stop-color="#C300FF"/>
<stop offset="1" stop-color="#00F3FF"/>
</linearGradient>
<linearGradient id="paint14_linear" x1="156.303" y1="657.331" x2="797.695" y2="239.228" gradientUnits="userSpaceOnUse">
<stop stop-color="#FF51D7"/>
<stop offset="0.5" stop-color="#C300FF"/>
<stop offset="1" stop-color="#00F3FF"/>
</linearGradient>
<linearGradient id="paint15_linear" x1="169.895" y1="652.226" x2="784.126" y2="251.828" gradientUnits="userSpaceOnUse">
<stop stop-color="#FF51D7"/>
<stop offset="0.5" stop-color="#C300FF"/>
<stop offset="1" stop-color="#00F3FF"/>
</linearGradient>
<linearGradient id="paint16_linear" x1="183.387" y1="647.178" x2="770.553" y2="264.423" gradientUnits="userSpaceOnUse">
<stop stop-color="#FF51D7"/>
<stop offset="0.5" stop-color="#C300FF"/>
<stop offset="1" stop-color="#00F3FF"/>
</linearGradient>
<linearGradient id="paint17_linear" x1="196.754" y1="642.204" x2="756.975" y2="277.013" gradientUnits="userSpaceOnUse">
<stop stop-color="#FF51D7"/>
<stop offset="0.5" stop-color="#C300FF"/>
<stop offset="1" stop-color="#00F3FF"/>
</linearGradient>
<linearGradient id="paint18_linear" x1="209.961" y1="637.324" x2="743.393" y2="289.597" gradientUnits="userSpaceOnUse">
<stop stop-color="#FF51D7"/>
<stop offset="0.5" stop-color="#C300FF"/>
<stop offset="1" stop-color="#00F3FF"/>
</linearGradient>
<linearGradient id="paint19_linear" x1="222.947" y1="632.553" x2="729.791" y2="302.157" gradientUnits="userSpaceOnUse">
<stop stop-color="#FF51D7"/>
<stop offset="0.5" stop-color="#C300FF"/>
<stop offset="1" stop-color="#00F3FF"/>
</linearGradient>
<linearGradient id="paint20_linear" x1="235.657" y1="627.949" x2="716.182" y2="314.71" gradientUnits="userSpaceOnUse">
<stop stop-color="#FF51D7"/>
<stop offset="0.5" stop-color="#C300FF"/>
<stop offset="1" stop-color="#00F3FF"/>
</linearGradient>
<linearGradient id="paint21_linear" x1="247.978" y1="623.537" x2="702.542" y2="327.22" gradientUnits="userSpaceOnUse">
<stop stop-color="#FF51D7"/>
<stop offset="0.5" stop-color="#C300FF"/>
<stop offset="1" stop-color="#00F3FF"/>
</linearGradient>
</defs>
</svg>
