<svg width="161" height="50" viewBox="0 0 161 50" fill="none" xmlns="http://www.w3.org/2000/svg">
<g clip-path="url(#clip0)">
<path d="M84.4344 12.5626C84.4344 14.3644 82.983 15.8158 81.1812 15.8158C79.3794 15.8158 77.9279 14.3644 77.9279 12.5626C77.9279 10.7608 79.3293 9.30931 81.1812 9.30931C83.033 9.35936 84.4344 10.8108 84.4344 12.5626ZM71.021 19.1191C71.021 19.4194 71.021 19.9199 71.021 19.9199C71.021 19.9199 69.4695 17.9179 66.1662 17.9179C60.7107 17.9179 56.4565 22.0721 56.4565 27.8278C56.4565 33.5335 60.6607 37.7377 66.1662 37.7377C69.5195 37.7377 71.021 35.6857 71.021 35.6857V36.5365C71.021 36.9369 71.3213 37.2372 71.7217 37.2372H75.7758V18.4184C75.7758 18.4184 72.0721 18.4184 71.7217 18.4184C71.3213 18.4184 71.021 18.7688 71.021 19.1191ZM71.021 31.1812C70.2703 32.2823 68.7688 33.2332 66.967 33.2332C63.7638 33.2332 61.3113 31.2312 61.3113 27.8278C61.3113 24.4244 63.7638 22.4224 66.967 22.4224C68.7187 22.4224 70.3203 23.4234 71.021 24.4745V31.1812ZM78.7788 18.4184H83.5836V37.2372H78.7788V18.4184ZM150.551 17.9179C147.247 17.9179 145.696 19.9199 145.696 19.9199V9.35936H140.891V37.2372C140.891 37.2372 144.595 37.2372 144.945 37.2372C145.345 37.2372 145.646 36.8869 145.646 36.5365V35.6857C145.646 35.6857 147.197 37.7377 150.501 37.7377C155.956 37.7377 160.21 33.5335 160.21 27.8278C160.21 22.1221 155.956 17.9179 150.551 17.9179ZM149.75 33.1832C147.898 33.1832 146.446 32.2322 145.696 31.1311V24.4244C146.446 23.4234 148.048 22.3724 149.75 22.3724C152.953 22.3724 155.405 24.3744 155.405 27.7778C155.405 31.1812 152.953 33.1832 149.75 33.1832ZM138.388 26.0761V37.2873H133.584V26.6266C133.584 23.5235 132.583 22.2723 129.88 22.2723C128.428 22.2723 126.927 23.023 125.976 24.1241V37.2372H121.171V18.4184H124.975C125.375 18.4184 125.676 18.7688 125.676 19.1191V19.9199C127.077 18.4685 128.929 17.9179 130.781 17.9179C132.883 17.9179 134.635 18.5185 136.036 19.7197C137.738 21.1211 138.388 22.9229 138.388 26.0761ZM109.51 17.9179C106.206 17.9179 104.655 19.9199 104.655 19.9199V9.35936H99.8499V37.2372C99.8499 37.2372 103.554 37.2372 103.904 37.2372C104.304 37.2372 104.605 36.8869 104.605 36.5365V35.6857C104.605 35.6857 106.156 37.7377 109.459 37.7377C114.915 37.7377 119.169 33.5335 119.169 27.8278C119.219 22.1221 114.965 17.9179 109.51 17.9179ZM108.709 33.1832C106.857 33.1832 105.405 32.2322 104.655 31.1311V24.4244C105.405 23.4234 107.007 22.3724 108.709 22.3724C111.912 22.3724 114.364 24.3744 114.364 27.7778C114.364 31.1812 111.912 33.1832 108.709 33.1832ZM95.6957 17.9179C97.1472 17.9179 97.8979 18.1682 97.8979 18.1682V22.6226C97.8979 22.6226 93.8939 21.2713 91.3914 24.1241V37.2873H86.5866V18.4184C86.5866 18.4184 90.2903 18.4184 90.6407 18.4184C91.0411 18.4184 91.3413 18.7688 91.3413 19.1191V19.9199C92.2423 18.8689 94.1942 17.9179 95.6957 17.9179ZM45.7958 35.5355C45.5456 34.9349 45.2953 34.2843 45.0451 33.7337C44.6447 32.8328 44.2443 31.982 43.8939 31.1812L43.8439 31.1311C40.3904 23.6236 36.6867 16.016 32.7828 8.50851L32.6326 8.20821C32.2322 7.45746 31.8318 6.65666 31.4314 5.85586C30.9309 4.95495 30.4304 4.004 29.6296 3.1031C28.028 1.1011 25.7257 0 23.2733 0C20.7708 0 18.5185 1.1011 16.8669 3.003C16.1161 3.9039 15.5656 4.85485 15.0651 5.75576C14.6647 6.55656 14.2643 7.35736 13.8639 8.10811L13.7137 8.40841C9.85988 15.9159 6.10613 23.5235 2.65267 31.031L2.60262 31.1311C2.25227 31.9319 1.85187 32.7828 1.45147 33.6837C1.20122 34.2342 0.950971 34.8348 0.700721 35.4855C0.0500705 37.3373 -0.15013 39.0891 0.100121 40.8909C0.650671 44.6446 3.15317 47.7978 6.60663 49.1992C7.90793 49.7498 9.25928 50 10.6607 50C11.0611 50 11.5616 49.9499 11.962 49.8999C13.6136 49.6997 15.3153 49.1492 16.967 48.1982C19.019 47.047 20.971 45.3954 23.1732 42.993C25.3754 45.3954 27.3774 47.047 29.3794 48.1982C31.031 49.1492 32.7327 49.6997 34.3844 49.8999C34.7848 49.9499 35.2853 50 35.6857 50C37.0871 50 38.4885 49.7498 39.7398 49.1992C43.2433 47.7978 45.6957 44.5946 46.2463 40.8909C46.6467 39.1391 46.4465 37.3874 45.7958 35.5355ZM23.2232 38.1381C20.5205 34.7347 18.7688 31.5315 18.1682 28.8288C17.9179 27.6777 17.8679 26.6767 18.018 25.7758C18.1181 24.975 18.4184 24.2743 18.8188 23.6737C19.7698 22.3223 21.3714 21.4715 23.2232 21.4715C25.0751 21.4715 26.7267 22.2723 27.6276 23.6737C28.028 24.2743 28.3283 24.975 28.4284 25.7758C28.5786 26.6767 28.5285 27.7277 28.2783 28.8288C27.6777 31.4815 25.9259 34.6847 23.2232 38.1381ZM43.1932 40.4905C42.8429 43.0931 41.0911 45.3453 38.6387 46.3463C37.4375 46.8468 36.1362 46.997 34.8348 46.8468C33.5836 46.6967 32.3323 46.2963 31.031 45.5455C29.2292 44.5445 27.4274 42.993 25.3253 40.6907C28.6286 36.6366 30.6306 32.9329 31.3814 29.6296C31.7317 28.0781 31.7818 26.6767 31.6316 25.3754C31.4314 24.1241 30.981 22.973 30.2803 21.972C28.7287 19.7197 26.1261 18.4184 23.2232 18.4184C20.3203 18.4184 17.7177 19.7698 16.1662 21.972C15.4655 22.973 15.015 24.1241 14.8148 25.3754C14.6146 26.6767 14.6647 28.1281 15.0651 29.6296C15.8158 32.9329 17.8679 36.6867 21.1211 40.7407C19.0691 43.043 17.2172 44.5946 15.4154 45.5956C14.1141 46.3463 12.8629 46.7467 11.6116 46.8969C10.2603 47.047 8.95898 46.8468 7.80783 46.3964C5.35538 45.3954 3.60362 43.1431 3.25327 40.5405C3.10312 39.2893 3.20322 38.038 3.70372 36.6366C3.85387 36.1361 4.10412 35.6356 4.35437 35.035C4.70472 34.2342 5.10512 33.3834 5.50553 32.5325L5.55558 32.4324C9.00903 24.975 12.7127 17.3674 16.5666 9.95996L16.7167 9.65966C17.1171 8.90891 17.5175 8.10811 17.9179 7.35736C18.3183 6.55656 18.7688 5.80581 19.3193 5.15516C20.3704 3.95395 21.7718 3.3033 23.3233 3.3033C24.8749 3.3033 26.2763 3.95395 27.3273 5.15516C27.8779 5.80581 28.3283 6.55656 28.7287 7.35736C29.1291 8.10811 29.5295 8.90891 29.9299 9.65966L30.0801 9.95996C33.8839 17.4174 37.5876 25.025 41.0411 32.4825V32.5325C41.4415 33.3333 41.7918 34.2342 42.1922 35.035C42.4425 35.6356 42.6927 36.1361 42.8429 36.6366C43.2433 37.9379 43.3934 39.1892 43.1932 40.4905Z" fill="white"/>
</g>
<defs>
<clipPath id="clip0">
<rect width="160.21" height="50" fill="white"/>
</clipPath>
</defs>
</svg>
