<svg width="302" height="50" viewBox="0 0 302 50" fill="none" xmlns="http://www.w3.org/2000/svg">
<path fill-rule="evenodd" clip-rule="evenodd" d="M7.81129 48.2165C8.52108 49.4633 9.26048 50 10.6833 50C12.8908 50 16.037 48.2128 16.8642 47.7235L33.8352 37.2103H13.3958L13.3957 37.2103H13.4051L23.6477 12.9775L39.2857 49.9981H53.3837L32.8808 1.45449C32.5989 0.7593 31.9802 3.8147e-06 30.6907 3.8147e-06H16.6975C15.1177 3.8147e-06 14.5726 0.944065 14.3925 1.43003L1.54763 32.0939C1.47643 32.2718 1.40881 32.4331 1.34584 32.5834C1.06298 33.2585 0.873779 33.71 0.873779 34.4289V34.4289C0.873779 35.0495 0.880899 35.3364 1.3277 36.1977L7.81129 48.2165ZM252.867 12.4333C249.916 12.4333 247.407 13.3259 247.394 15.285C247.379 17.5791 248.819 18.3745 254.253 20.1418C260.258 22.1162 263.448 24.1239 263.415 29.0088C263.384 34.5152 259.128 37.6559 252.913 37.6559C248.514 37.6559 244.57 36.2288 241.563 33.5843L243.435 29.0523C246.164 31.3387 249.471 32.9602 253.044 32.9756C256.172 32.9909 258.397 31.4692 258.397 29.216C258.397 27.331 257.307 26.0778 252.036 24.4078C245.99 22.4257 242.338 20.3592 242.368 15.4359C242.404 10.5382 246.998 7.75298 252.773 7.78112C258.278 7.80792 261.491 9.72721 262.209 10.1559C262.244 10.1772 262.274 10.1947 262.297 10.2082L260.481 14.3285C259.302 13.6916 256.716 12.4333 252.867 12.4333ZM268.611 37.1579H273.452L273.453 22.2505L273.452 8.26527H268.611V37.1579ZM273.453 22.2505L287.713 37.161H293.995L279.693 22.2505L292.626 8.26324H286.43L273.453 22.2505ZM134.86 37.1564H139.98V12.9696H147.586L149.553 8.26372H125.696V12.9696H134.86V37.1564ZM77.9916 14.1248L73.0402 25.685H82.9865L77.9916 14.1248ZM93.1374 37.1556H87.7742L84.8433 30.1837H71.1808L68.2089 37.1556H63.0094L75.723 8.05831H80.4238L93.1374 37.1556ZM299.008 36.7879C300.286 36.7879 301.23 35.8441 301.23 34.5372C301.23 33.2303 300.286 32.284 299.008 32.284C297.734 32.284 296.785 33.2303 296.785 34.5372C296.785 35.8441 297.734 36.7879 299.008 36.7879ZM299.008 31.9208C300.453 31.9208 301.622 33.0922 301.622 34.5372C301.622 35.9822 300.453 37.151 299.008 37.151C297.57 37.151 296.396 35.9822 296.396 34.5372C296.396 33.0922 297.57 31.9208 299.008 31.9208ZM298.861 34.3541C299.17 34.3541 299.49 34.3132 299.49 33.927C299.49 33.6738 299.357 33.4974 298.991 33.4974H298.587V34.3541H298.861ZM299.508 34.9833L300.14 35.8708H299.667L299.012 34.9219C298.881 34.725 298.799 34.6585 298.587 34.6585V35.8708H298.198V33.1623H299.083C299.631 33.1623 299.912 33.5255 299.912 33.927C299.912 34.3183 299.649 34.5664 299.193 34.6252C299.316 34.7173 299.395 34.8247 299.508 34.9833ZM237.175 12.9691H221.702V20.317H231.613V24.8617H221.702V32.5395H237.183V37.1559H216.592V8.26321H237.175V12.9691ZM165.203 32.9927C159.525 32.9927 155.379 28.3916 155.379 22.7139C155.379 17.0361 159.525 12.4325 165.203 12.4325C170.88 12.4325 175.029 17.0361 175.029 22.7139C175.029 28.3916 170.88 32.9927 165.203 32.9927ZM165.203 7.76752C156.949 7.76752 150.261 14.4606 150.261 22.7139C150.261 30.9671 156.949 37.6551 165.203 37.6551C173.453 37.6551 180.146 30.9671 180.146 22.7139C180.146 14.4606 173.453 7.76752 165.203 7.76752ZM190.618 32.5395L196.454 32.5344C202.127 32.5344 206.278 28.3477 206.278 22.6725C206.278 16.9973 202.152 12.9742 196.477 12.9742H190.618V32.5395ZM185.493 8.26578H196.454C204.702 8.26578 211.393 14.4193 211.393 22.6725C211.393 30.9231 204.702 37.1559 196.454 37.1559L185.493 37.1585V8.26578ZM120.116 24.3553C120.116 32.9692 115.062 37.6137 107.732 37.6137C100.405 37.6137 95.351 32.9692 95.351 24.3553V8.26578H100.469V24.964C100.469 30.0178 103.435 32.9845 107.732 32.9845C112.034 32.9845 115.001 30.0178 115.001 24.964V8.26578H120.116V24.3553Z" fill="white"/>
</svg>
