<svg width="149" height="50" viewBox="0 0 149 50" fill="none" xmlns="http://www.w3.org/2000/svg">
<path d="M63.8329 25.6413C63.8329 32.5815 58.4036 37.6956 51.7405 37.6956C45.0775 37.6956 39.6481 32.5815 39.6481 25.6413C39.6481 18.6521 45.0775 13.5869 51.7405 13.5869C58.4036 13.5869 63.8329 18.6521 63.8329 25.6413ZM58.5394 25.6413C58.5394 21.3043 55.3927 18.3369 51.7405 18.3369C48.0884 18.3369 44.9416 21.3043 44.9416 25.6413C44.9416 29.9347 48.0884 32.9456 51.7405 32.9456C55.3927 32.9456 58.5394 29.9293 58.5394 25.6413Z" fill="white"/>
<path d="M89.9199 25.6413C89.9199 32.5815 84.4905 37.6956 77.8275 37.6956C71.1644 37.6956 65.7351 32.5815 65.7351 25.6413C65.7351 18.6576 71.1644 13.5869 77.8275 13.5869C84.4905 13.5869 89.9199 18.6521 89.9199 25.6413ZM84.6264 25.6413C84.6264 21.3043 81.4796 18.3369 77.8275 18.3369C74.1753 18.3369 71.0286 21.3043 71.0286 25.6413C71.0286 29.9347 74.1753 32.9456 77.8275 32.9456C81.4796 32.9456 84.6264 29.9293 84.6264 25.6413Z" fill="white"/>
<path d="M114.92 14.3152V35.9565C114.92 44.8587 109.67 48.4945 103.463 48.4945C97.6209 48.4945 94.1046 44.5869 92.7785 41.3913L97.3873 39.4728C98.2079 41.4347 100.219 43.75 103.458 43.75C107.431 43.75 109.893 41.2989 109.893 36.6847V34.951H109.708C108.523 36.413 106.241 37.6902 103.36 37.6902C97.3329 37.6902 91.8112 32.4402 91.8112 25.6847C91.8112 18.8804 97.3329 13.5869 103.36 13.5869C106.235 13.5869 108.518 14.8641 109.708 16.2826H109.893V14.3206H114.92V14.3152ZM110.268 25.6847C110.268 21.4402 107.436 18.3369 103.833 18.3369C100.181 18.3369 97.1209 21.4402 97.1209 25.6847C97.1209 29.8858 100.181 32.9456 103.833 32.9456C107.436 32.9456 110.268 29.8858 110.268 25.6847Z" fill="white"/>
<path d="M123.208 1.63049V36.9566H118.045V1.63049H123.208Z" fill="white"/>
<path d="M143.327 29.6087L147.436 32.3478C146.11 34.3098 142.914 37.6902 137.393 37.6902C130.545 37.6902 125.431 32.3968 125.431 25.6359C125.431 18.4674 130.588 13.5815 136.8 13.5815C143.056 13.5815 146.115 18.5598 147.115 21.25L147.664 22.6196L131.55 29.2935C132.784 31.712 134.702 32.9457 137.393 32.9457C140.088 32.9457 141.958 31.6196 143.327 29.6087ZM130.681 25.2718L141.452 20.7989C140.86 19.2935 139.077 18.2446 136.98 18.2446C134.289 18.2446 130.545 20.6196 130.681 25.2718V25.2718Z" fill="white"/>
<path d="M20.1047 22.5055V17.3914H37.3383C37.5068 18.2827 37.5938 19.337 37.5938 20.4783C37.5938 24.3153 36.5449 29.0598 33.1644 32.4403C29.8764 35.8642 25.6753 37.6903 20.1101 37.6903C9.79487 37.6903 1.12096 29.2881 1.12096 18.9729C1.12096 8.65767 9.79487 0.255493 20.1101 0.255493C25.8166 0.255493 29.8818 2.49462 32.9362 5.4131L29.3275 9.0218C27.1373 6.96745 24.1699 5.36962 20.1047 5.36962C12.572 5.36962 6.68074 11.4403 6.68074 18.9729C6.68074 26.5055 12.572 32.5761 20.1047 32.5761C24.9905 32.5761 27.7731 30.6142 29.5557 28.8316C31.0014 27.3859 31.9525 25.3207 32.3275 22.5001L20.1047 22.5055V22.5055Z" fill="white"/>
</svg>
