<svg width="305" height="50" viewBox="0 0 305 50" fill="none" xmlns="http://www.w3.org/2000/svg">
<g clip-path="url(#clip0)">
<path d="M17.4234 0.0393701V0C19.51 0.472441 21.3998 3.2874 21.3998 6.45669C21.3998 10.5709 17.0887 13.8976 17.2068 17.4803H17.2462C18.2698 12.5591 25.8486 9.66535 24.2541 4.31102C26.3998 5.72835 27.4234 9.62598 27.7187 12.5984C28.6635 9.52756 32.8564 7.59843 33.5454 5.25591H33.5848V20.689H0.395815L0.356445 12.7953C0.356445 8.05118 8.52574 8.16929 7.89582 3.77953L7.93519 3.74016C10.3171 7.67717 6.55723 11.063 7.28558 13.5827H7.32495C9.25408 6.06299 16.5179 8.07087 18.1517 3.2874C18.5848 1.92913 18.0533 0.472441 17.4234 0.0393701" fill="white"/>
<path d="M6.1241 22.2441C4.19496 24.1733 2.18709 25.0591 0.395752 24.3308V38.4843H33.565V23.5237C30.7501 26.9095 27.3249 25.4528 27.6595 22.6772V22.6378C22.4824 28.6615 19.5296 25.2953 20.3564 22.8544V22.815C15.6517 28.504 12.6989 25.1772 14.1162 22.3426L14.0769 22.3032C8.13197 29.4489 4.37213 26.8308 6.1241 22.3032V22.2441Z" fill="white"/>
<path d="M44.4903 13.0905C44.4903 11.063 44.1754 9.60626 40.3959 9.56689L40.1793 9.21256V8.46453C40.1793 8.16925 40.573 8.12988 40.9077 8.12988C42.2069 8.12988 44.7462 8.34642 46.636 8.34642C48.3486 8.34642 50.0809 8.12988 51.9903 8.12988C52.8958 8.12988 53.1124 8.12988 53.1124 8.60232V9.2913C53.1124 9.50784 52.6006 9.54721 51.8919 9.54721C50.1203 9.54721 48.3683 9.66532 48.3683 11.7913V21.496H66.8525V13.4252C66.8525 10.4527 66.8525 9.80311 63.3683 9.54721C62.8958 9.50784 62.8171 9.37004 62.8171 8.85823V8.34642L63.0336 8.12988C64.451 8.20862 67.1872 8.34642 69.8447 8.34642C72.6006 8.34642 73.7226 8.26768 74.9825 8.12988L75.1596 8.38579V9.19288C75.1596 9.54721 74.7659 9.54721 74.1163 9.54721C71.8722 9.54721 70.7502 9.94091 70.7502 12.4409V33.7795C70.7502 36.8897 72.4431 37.1456 74.9037 37.1456C75.0809 37.1456 75.0809 37.7952 75.0809 38.2677C75.0809 38.4448 74.9037 38.5826 73.7423 38.5826C72.0297 38.5826 70.2974 38.3661 68.5651 38.3661C66.9706 38.3661 64.2935 38.5826 63.7817 38.5826C62.6596 38.5826 62.4431 38.5039 62.4431 38.3267V37.3622L62.6596 37.1456C66.8132 37.1456 66.8919 36.2795 66.8919 33.2677V23.1693H48.388V34.0748C48.388 36.5354 49.0376 37.1259 52.2266 37.1259C52.699 37.1259 52.8368 37.2047 52.8368 37.5984V38.248C52.8368 38.5039 52.4037 38.563 51.4588 38.563C49.6872 38.563 47.9155 38.3464 46.1636 38.3464C44.5297 38.3464 42.8368 38.563 41.2029 38.563C40.9077 38.563 40.514 38.563 40.2974 38.307V37.3425L40.6124 37.1259C42.6399 37.1259 44.5297 36.9488 44.5297 34.7637L44.4903 13.0905ZM88.7226 26.2401C88.7226 23.8779 88.4273 22.0669 85.2777 22.0669C84.1163 22.0669 81.951 22.4015 81.951 23.6614C81.951 23.996 82.0297 24.3307 82.1675 24.6456L79.451 26.2007C79.2935 25.7874 79.1951 25.3543 79.1951 24.9015C79.1951 23.5236 80.573 22.4409 81.4785 21.9291L85.3565 19.685C85.8683 19.3897 86.0848 19.2519 86.262 19.2519C89.8447 19.2519 91.695 20.9842 91.695 24.5078V33.6417C91.695 34.5472 91.695 36.3582 93.073 36.3582C93.8998 36.3582 94.0572 36.0039 94.6281 35.0984L95.4352 35.4133C94.9234 37.4803 93.8407 39.1535 91.9903 39.1535C89.0573 39.1535 88.762 36.437 88.8013 35.3543C87.1675 37.0275 85.0021 39.1535 82.4628 39.1535C79.9628 39.1535 78.6636 35.9252 78.6636 33.9763C78.6636 33.248 79.4706 31.87 83.0533 30.4921L88.7029 28.2874L88.7226 26.2401ZM88.6832 29.5078L84.4116 31.437C83.8013 31.6929 82.2462 32.5196 82.2462 33.6417C82.2462 34.8228 82.8171 37.0078 84.2344 37.0078C85.7502 37.0078 87.2069 35.4921 88.2895 34.4685L88.6832 34.0748V29.5078ZM103.723 33.996C103.723 35.7086 103.723 37.3622 106.99 37.3622C107.246 37.3622 107.286 37.5787 107.286 37.9724C107.286 38.3661 107.286 38.5826 106.951 38.5826C105.435 38.5826 103.939 38.3661 102.423 38.3661C100.79 38.3661 99.0572 38.5826 97.4234 38.5826C97.2462 38.5826 97.2462 38.5039 97.2462 38.248V37.8543C97.2462 37.4212 97.325 37.3818 98.1911 37.3425C100.081 37.2244 100.435 36.5748 100.435 34.2322V24.6653C100.435 23.8582 100.041 23.3267 99.136 23.0708C98.9588 23.0315 97.8368 22.7165 97.8368 22.1259C97.8368 21.87 97.9746 21.7322 98.447 21.5157L101.636 20.059C102.581 19.6259 103.309 19.2913 103.447 19.2913C103.703 19.2913 103.782 19.5472 103.782 19.685L103.703 24.1338L103.782 24.2126C105.16 22.4606 107.148 19.311 109.786 19.311C111.341 19.311 112.246 20.0393 112.246 21.6338C112.246 22.5393 111.38 23.307 110.475 23.307C109.313 23.307 108.88 22.5393 107.581 22.5393C106.538 22.5393 105.199 23.996 104.353 25.0787L103.703 25.8858L103.723 33.996ZM116.656 25.7086C116.656 23.8189 116.577 23.4252 115.671 23.0315L114.116 22.3425C114.038 22.3425 114.038 22.2637 114.038 22.0472C114.038 21.6929 114.077 21.6929 114.372 21.5354L119.628 18.996C119.884 19.0748 119.884 19.3897 119.884 19.6063C119.884 20.4133 119.805 21.2795 119.943 22.1063C121.36 21.3779 124.943 19.2716 126.4 19.2716C131.104 19.2716 134.451 23.9763 134.451 28.3267C134.451 36.6141 126.045 39.1929 122.719 39.1929C121.774 39.1929 120.868 38.8976 119.923 38.7992V45.4724C119.923 48.4055 120.652 48.563 123.762 48.7401C123.939 48.7401 124.057 48.8582 124.057 48.996V49.4291C124.057 49.685 123.978 49.9409 123.841 49.9409C121.99 49.9409 120.179 49.7244 118.191 49.7244C116.301 49.7244 114.569 49.9409 113.447 49.9409C113.053 49.9409 113.014 49.7637 113.014 49.3307V49.0748C113.014 48.937 113.053 48.7204 113.152 48.7204C116.439 48.4252 116.636 48.3858 116.636 44.8818V25.7086H116.656ZM119.943 34.2519C119.943 36.496 122.148 37.2244 124.215 37.2244C128.604 37.2244 130.888 34.1732 130.888 29.7637C130.888 25.9645 128.644 22.0472 124.51 22.0472C122.778 22.0472 121.419 22.3819 119.943 23.4252V34.2519ZM142.089 27.0472C142.01 27.6574 142.01 28.248 142.01 28.8582C142.01 32.5984 144.904 36.3582 148.821 36.3582C150.415 36.3582 151.538 35.7677 153.683 33.8189L154.451 34.37C152.738 37.185 150.14 39.1535 146.695 39.1535C142.305 39.1535 138.723 34.9409 138.723 30.1574C138.723 25.059 142.167 19.2519 147.817 19.2519C151.656 19.2519 154.372 22.1456 154.372 25.7283V27.0669H142.089V27.0472ZM149.589 25.8464C150.16 25.8464 150.79 25.0196 150.79 24.2913C150.79 22.185 149.195 20.6693 147.089 20.6693C144.49 20.6693 142.738 23.6417 142.305 26.063L149.589 25.8464ZM163.604 33.996C163.604 35.7086 163.604 37.3622 166.872 37.3622C167.128 37.3622 167.167 37.5787 167.167 37.9724C167.167 38.3661 167.167 38.5826 166.833 38.5826C165.317 38.5826 163.821 38.3661 162.305 38.3661C160.671 38.3661 158.939 38.5826 157.305 38.5826C157.128 38.5826 157.128 38.5039 157.128 38.248V37.8543C157.128 37.4212 157.207 37.3818 158.073 37.3425C159.963 37.2244 160.317 36.5748 160.317 34.2322V24.6653C160.317 23.8582 159.923 23.3267 159.018 23.0708C158.841 23.0315 157.719 22.7165 157.719 22.1259C157.719 21.87 157.837 21.7322 158.309 21.5157L161.498 20.059C162.443 19.6259 163.171 19.2913 163.309 19.2913C163.565 19.2913 163.664 19.5472 163.664 19.685L163.565 24.1338L163.664 24.2126C165.041 22.4606 167.03 19.311 169.648 19.311C171.203 19.311 172.108 20.0393 172.108 21.6338C172.108 22.5393 171.242 23.307 170.337 23.307C169.175 23.307 168.742 22.5393 167.443 22.5393C166.4 22.5393 165.061 23.996 164.215 25.0787L163.565 25.8858L163.604 33.996Z" fill="white"/>
<path d="M203.014 36.8307C200.12 38.248 196.636 39.1536 192.719 39.1536C184.274 39.1536 174.923 33.1693 174.923 23.248C174.923 13.7992 183.663 7.50001 192.502 7.50001C195.396 7.50001 200.356 8.50395 202.856 10L203.427 15C203.467 15.3347 203.565 15.8071 203.565 16.0236C203.565 16.3189 202.876 16.3189 202.699 16.3189C202.522 16.3189 202.128 15.6299 201.538 14.2126C200.297 11.2402 196.498 9.17324 192.699 9.17324C184.471 9.17324 179.766 15.9449 179.766 23.7008C179.766 30.7677 185.455 37.4606 192.699 37.4606C195.238 37.4606 198.526 36.5551 200.238 35.1772C201.577 34.0945 202.128 32.1654 202.66 30.5709C202.699 30.4921 202.955 30.4921 203.171 30.4921C203.506 30.4921 204.156 30.5315 204.038 31.1417L203.014 36.8307ZM218.604 19.252C223.742 19.252 228.211 23.7402 228.211 28.8976C228.211 35.1181 223.073 39.1536 217.443 39.1536C212.227 39.1536 208.093 34.7638 208.093 29.4882C208.093 23.7402 212.876 19.252 218.604 19.252V19.252ZM217.62 20.6693C213.27 20.6693 211.971 24.7638 211.971 28.8976C211.971 32.6969 213.998 37.7362 218.447 37.7362C222.66 37.7362 224.352 33.9764 224.352 30.2756C224.352 25.9646 222.876 20.6693 217.62 20.6693ZM237.876 35.2953C237.876 36.2402 237.876 37.3622 240.849 37.3622C240.947 37.3622 240.947 37.6181 240.947 37.9528C240.947 38.3465 240.908 38.563 240.809 38.563C239.136 38.563 237.226 38.3465 236.321 38.3465C234.766 38.3465 233.23 38.563 231.656 38.563C231.36 38.563 231.262 38.4252 231.262 38.2677V37.874C231.262 37.3622 231.4 37.3622 232.01 37.3622C233.9 37.3622 234.589 37.1063 234.589 35.0787V11.7913C234.589 9.07481 234.589 8.89765 232.915 8.20867C232.266 7.95277 231.656 7.73623 231.656 7.40158C231.656 7.06694 232.089 6.92914 233.86 6.24017L237.01 5.05906C237.226 4.96064 237.443 4.90158 237.66 4.84253C237.975 4.84253 237.975 5.2756 237.975 5.53151C237.975 7.59843 237.876 9.70473 237.876 11.7717V35.2953ZM249.864 35.2953C249.864 36.2402 249.864 37.3622 252.837 37.3622C252.935 37.3622 252.935 37.6181 252.935 37.9528C252.935 38.3465 252.876 38.563 252.797 38.563C251.124 38.563 249.215 38.3465 248.309 38.3465C246.754 38.3465 245.219 38.563 243.644 38.563C243.349 38.563 243.25 38.4252 243.25 38.2677V37.874C243.25 37.3622 243.388 37.3622 243.978 37.3622C245.888 37.3622 246.577 37.1063 246.577 35.0787V11.7913C246.577 9.07481 246.577 8.89765 244.904 8.20867C244.254 7.95277 243.644 7.73623 243.644 7.40158C243.644 7.06694 244.077 6.92914 245.849 6.24017L248.998 5.05906C249.215 4.96064 249.431 4.90158 249.648 4.84253C249.963 4.84253 249.963 5.2756 249.963 5.53151C249.963 7.59843 249.864 9.70473 249.864 11.7717V35.2953ZM261.852 35.2953C261.852 36.2402 261.852 37.3622 264.825 37.3622C264.923 37.3622 264.923 37.6181 264.923 37.9528C264.923 38.3465 264.884 38.563 264.786 38.563C263.112 38.563 261.203 38.3465 260.297 38.3465C258.742 38.3465 257.187 38.563 255.632 38.563C255.337 38.563 255.238 38.4252 255.238 38.2677V37.874C255.238 37.3622 255.376 37.3622 255.986 37.3622C257.876 37.3622 258.565 37.1063 258.565 35.0787V26.2008C258.565 23.4843 258.565 23.3071 256.892 22.6181C256.242 22.3622 255.632 22.1457 255.632 21.811C255.632 21.4764 256.065 21.3386 257.837 20.6299L260.986 19.4685C261.203 19.3701 261.419 19.2913 261.636 19.252C261.951 19.252 261.951 19.6851 261.951 19.941C261.951 22.0079 261.852 24.1339 261.852 26.2008V35.2953ZM260.081 6.4567C261.419 6.4567 262.502 7.53938 262.502 8.85828C262.502 10.1969 261.419 11.2795 260.101 11.2795C258.762 11.2795 257.679 10.1969 257.679 8.87796C257.679 7.53938 258.742 6.4567 260.081 6.4567ZM270.553 24.1142C270.553 23.2874 270.16 22.7756 269.746 22.6969L268.329 22.3622C268.211 22.3228 268.073 22.185 268.073 21.8898C268.073 21.752 268.112 21.4567 268.329 21.4173C270.494 20.8662 273.408 19.2717 273.683 19.2717C273.86 19.2717 273.86 19.6063 273.86 19.7835V22.7559C275.888 21.1614 278.171 19.2717 280.927 19.2717C284.667 19.2717 286.282 21.378 286.282 25V35.5118C286.282 37.3622 287.699 37.3622 289.136 37.3622C289.215 37.3622 289.313 37.441 289.313 37.6575V38.4449C289.313 38.5236 289.234 38.563 289.097 38.563C287.384 38.563 286.262 38.3465 284.825 38.3465C283.27 38.3465 281.754 38.563 280.219 38.563C279.923 38.563 279.923 37.7953 279.923 37.6181C279.923 37.5 280.101 37.3622 280.356 37.3622C281.045 37.3622 283.034 37.3622 283.034 36.063V25.9252C283.034 23.248 282.227 21.7323 279.195 21.7323C277.384 21.7323 275.14 22.815 273.9 24.0551V35.2559C273.9 36.2205 273.9 37.3228 276.872 37.3228C276.951 37.3228 276.951 37.5787 276.951 37.9331C276.951 38.3268 276.912 38.5433 276.833 38.5433C275.16 38.5433 273.25 38.3268 272.345 38.3268C270.789 38.3268 269.254 38.5433 267.679 38.5433C267.384 38.5433 267.286 38.4252 267.286 38.2284V37.8347C267.286 37.3228 267.423 37.3228 268.014 37.3228C269.904 37.3228 270.593 37.0669 270.593 35.0394L270.553 24.1142ZM303.959 24.5866H302.876C302.364 22.6969 301.36 20.6693 299.077 20.6693C297.089 20.6693 295.534 21.6142 295.534 23.6417C295.534 25.315 297.817 26.3583 300.061 27.5984C302.345 28.8976 304.589 30.4134 304.589 33.0709C304.589 36.811 301.144 39.1536 297.66 39.1536C294.864 39.1536 292.148 37.8937 292.089 37.2047L291.872 33.2874L293.112 33.1496C293.289 33.3662 293.329 33.6614 293.408 33.9764C293.88 35.748 295.829 37.7165 297.719 37.7165C299.923 37.7165 301.301 36.378 301.301 34.1339C301.301 32.7165 299.313 31.2008 298.23 30.6496C295.73 29.3504 292.541 27.8937 292.541 24.6063C292.541 21.0236 295.829 19.2126 299.097 19.2126C300.809 19.2126 302.541 19.6851 304.175 20.5512L303.959 24.5866Z" fill="white"/>
</g>
<defs>
<clipPath id="clip0">
<rect width="304.331" height="50" fill="white" transform="translate(0.356445)"/>
</clipPath>
</defs>
</svg>
