<svg width="212" height="49" viewBox="0 0 212 49" fill="none" xmlns="http://www.w3.org/2000/svg">
<path fill-rule="evenodd" clip-rule="evenodd" d="M0.621582 48.0769V0H7.36769V27.5838L19.3903 15.6519H28.3625L36.9187 35.3256L45.2408 15.6519H50.015L58.2677 35.3256L66.7767 15.6519H73.6985L59.5626 48.0769H57.0025L47.5715 26.0516L38.2903 48.0769H35.6932L23.3229 19.6001L16.9439 26.6273L26.03 48.0769H19.1951L12.3149 31.9109L7.36769 36.7999V48.0769H0.621582ZM96.0652 1.16218L97.1393 0H100.912L98.4276 2.71993L93.8144 7.77034L98.1006 18.3671L99.2064 21.0883V21.0907H96.0726L91.6504 10.1461L88.2729 13.847V21.0858H85.237V0H88.2729V9.64159L96.0652 1.16218ZM102.554 0V21.1287H114.82V18.3978H105.591V11.8325H114.233V9.10765H105.591V2.72728H114.543V0H102.554ZM116.806 21.163V0H119.847V18.4284H127.685V21.163H116.806ZM129.634 21.163V0H132.676V18.4284H140.514V21.163H129.634ZM142.474 0V21.163H154.765V18.4284H145.515V11.8558H154.178V9.12113H145.515V2.72972H154.484V0H142.474ZM166.463 11.2716L170.382 21.1581H167.237L163.411 11.6965C162.299 11.7039 159.787 11.7014 159.787 11.7014V21.1655H156.745V0H162.082C166.367 0 168.998 2.26069 169.031 5.92237C169.057 8.03977 168.793 9.34646 166.463 11.2716ZM159.787 2.60726V9.24971H161.741C164.999 9.24971 165.933 7.57563 165.901 5.80235C165.869 3.81966 164.69 2.60726 161.741 2.60726H159.787ZM205.992 30.575C204.654 28.847 202.752 28.4367 201.294 28.4367C198.758 28.4367 196.837 30.1745 196.837 32.4731C196.837 35.097 199.021 35.9145 201.355 36.7878C204.029 37.7891 206.9 38.8636 206.9 42.8177C206.9 46.0679 204.208 48.6053 200.766 48.6053C199.033 48.6053 197.175 48.1326 195.345 46.7463V44.8273C197.406 46.7806 199.033 47.0905 200.673 47.0905C203.186 47.0905 205.128 45.2608 205.128 42.8777C205.128 39.9837 202.795 39.0932 200.377 38.1699C197.773 37.1761 195.07 36.1442 195.07 32.5344C195.07 29.4103 197.789 26.9329 201.143 26.9231C202.845 26.9231 205.02 27.6199 205.992 28.7809V30.575ZM161.19 26.994L152.437 48.2745H153.963L156.962 40.9622H166.216L169.208 48.2745H170.743L161.991 26.994H161.19ZM161.574 29.6563L165.659 39.6053H157.521L161.574 29.6563ZM93.7654 44.504L99.3999 27.0149H100.636L106.342 44.4893L113.033 27.1226H114.814L106.694 48.4485H105.927L99.9951 29.6491L94.1621 48.4485H93.3968L85.237 27.1226H86.9784L93.7654 44.504ZM207.755 46.5321C207.755 47.6894 208.696 48.6299 209.855 48.6299C211.007 48.6299 211.952 47.6894 211.952 46.5321C211.952 45.3785 211.007 44.4404 209.855 44.4404C208.696 44.4404 207.755 45.3785 207.755 46.5321ZM208.022 46.5321C208.022 45.5291 208.845 44.7049 209.855 44.7049C210.859 44.7049 211.678 45.5291 211.678 46.5321C211.678 47.5461 210.859 48.3592 209.855 48.3592C208.845 48.3592 208.022 47.5461 208.022 46.5321ZM121.854 27.1043V48.2747H132.212V46.9104H123.495V27.1043H121.854ZM135.232 48.2747V27.1043H136.865V46.9104H145.587V48.2747H135.232ZM148.475 48.2748H150.116V27.1069H148.475V48.2748ZM118.839 48.2748H117.188V27.1069H118.839V48.2748ZM182.712 36.9724L190.766 27.1459H192.409V48.2746H190.766V29.5388H190.698L182.712 39.4106L174.72 29.5388H174.659V48.2746H173.014V27.1459H174.659L182.712 36.9724ZM210.238 46.6361L210.665 47.715H210.319L209.904 46.6802H209.504V47.7174H209.175V45.409H209.762C210.226 45.409 210.515 45.6551 210.518 46.0556C210.518 46.2858 210.487 46.4242 210.238 46.6361ZM209.504 45.6906V46.4169H209.723C210.074 46.4169 210.175 46.2319 210.175 46.0421C210.174 45.8266 210.038 45.6906 209.723 45.6906H209.504Z" fill="white"/>
</svg>
