<svg width="165" height="50" viewBox="0 0 165 50" fill="none" xmlns="http://www.w3.org/2000/svg">
<path fill-rule="evenodd" clip-rule="evenodd" d="M73.2145 4.01558C73.2145 6.23333 71.4167 8.03117 69.1989 8.03117C66.9812 8.03117 65.1833 6.23333 65.1833 4.01558C65.1833 1.79784 66.9812 0 69.1989 0C71.4167 0 73.2145 1.79784 73.2145 4.01558ZM0.705566 0.72998V35.251H6.7696V0.72998H0.705566ZM9.13696 23.0277C9.13696 16.1854 14.5173 10.2075 22.2922 10.2075C30.379 10.2075 35.4035 16.4944 35.4035 23.0112C35.4035 30.7609 29.34 35.9247 22.3526 35.9247C14.9901 35.9247 9.13696 30.6641 9.13696 23.0277ZM29.2845 23.0497C29.2845 19.2246 26.2896 16.0573 22.2208 16.0573C18.3659 16.0573 15.2999 19.133 15.2999 23.0606C15.2999 26.6438 18.0155 30.0639 22.3306 30.0639C25.9825 30.0639 29.2845 27.1053 29.2845 23.0497ZM50.6394 10.2075C42.8645 10.2075 37.4841 16.1854 37.4841 23.0277C37.4841 30.6641 43.3373 35.9247 50.6998 35.9247C57.6872 35.9247 63.7506 30.7609 63.7506 23.0112C63.7506 18.4476 61.7743 16.4227 61.7743 16.4227L63.4551 15.8463V10.9248H54.8424C54.8424 10.9248 52.9753 10.2075 50.6394 10.2075ZM50.5679 16.0573C54.6368 16.0573 57.6317 19.2246 57.6317 23.0497C57.6317 27.1053 54.3297 30.0639 50.6778 30.0639C46.3627 30.0639 43.647 26.6438 43.647 23.0606C43.647 19.133 46.713 16.0573 50.5679 16.0573ZM50.6351 43.975C54.287 43.975 57.5889 40.9944 57.5889 36.9387H63.7079C63.7079 44.6884 57.6444 49.8358 50.657 49.8358C43.2946 49.8358 37.4414 44.5751 37.4414 36.9387H43.5933C43.5933 40.5219 46.3199 43.975 50.6351 43.975ZM66.1797 35.2513V10.9248H72.2437V35.2513H66.1797ZM78.1319 16.3736V35.2512H84.1959V16.3736H87.5355V10.9248H84.1959V3.45459H78.1319V10.9248H74.8801V16.3736H78.1319ZM88.321 23.2473C88.321 16.1719 93.357 10.1909 101.169 10.1909C109.77 10.1909 113.626 17.1832 113.626 23.846V25.5158H94.7311C95.6224 28.7859 98.1769 30.5692 101.372 30.5692C105.205 30.5692 108.265 27.268 108.265 27.268L112.319 31.3272C112.319 31.3272 108.684 35.9411 101.295 35.9411C93.3737 35.9411 88.321 30.5589 88.321 23.2473ZM107.266 20.5943C106.627 17.0244 103.77 15.5299 100.976 15.5299C97.2646 15.5299 95.0693 18.0849 94.5663 20.5943H107.266ZM128.794 35.9444C120.96 35.9444 115.623 29.9779 115.623 22.943C115.623 15.683 121.655 10.1865 128.769 10.1865C135.646 10.1865 139.166 15.0413 139.166 15.0413L134.936 19.2523C134.936 19.2523 132.486 16.0863 128.74 16.0863C124.589 16.0863 121.751 19.2616 121.751 23.0361C121.751 27.0216 124.77 30.0793 128.694 30.0793C132.499 30.0793 134.93 26.9184 134.93 26.9184L139.203 31.1272C139.203 31.1272 135.717 35.9444 128.794 35.9444ZM141.409 0.642334V35.2688H147.473V22.174C147.473 17.9355 150.3 16.1218 153.487 16.1218C156.285 16.1218 158.81 17.8044 158.81 21.8602V35.2688H164.874V20.9436C164.874 14.9066 161.195 10.1865 154.846 10.1865C149.795 10.1865 147.473 13.3643 147.473 13.3643V0.642334H141.409Z" fill="white"/>
</svg>
